<svg width="24" height="24" viewBox="0 0 24 24" fill="none" xmlns="http://www.w3.org/2000/svg">
<path d="M22.71 0.622818C22.278 0.176474 21.681 -0.0471667 21.0724 0.00913013C19.5178 0.152896 16.7199 0.579224 13.9507 1.30743C10.6477 2.17597 8.41325 3.19461 7.30927 4.33513C5.73807 5.95827 4.63383 8.40407 4.3554 10.8776C4.21129 12.1579 4.2873 13.373 4.58128 14.4891C4.75248 15.1391 4.99419 15.7372 5.3027 16.2802C4.87549 16.758 4.47823 17.2177 4.11528 17.6492C1.70773 20.5118 0.262715 22.741 0.202367 22.8345C-0.0200163 23.1791 0.0700984 23.6448 0.403741 23.8746C0.527524 23.9598 0.667415 24.0006 0.805763 24.0006C1.04035 24.0006 1.27063 23.8833 1.41052 23.6666C1.42477 23.6445 2.86397 21.4241 5.21136 18.6331C5.51465 18.2725 5.84284 17.8915 6.19228 17.4969C6.22227 17.5292 6.2519 17.5618 6.28257 17.5934C7.08811 18.4256 8.09911 19.0169 9.28749 19.351C10.0137 19.5551 10.783 19.6575 11.5859 19.6575C11.9775 19.6575 12.3772 19.6331 12.7834 19.5843C15.1778 19.2967 17.5454 18.1559 19.1166 16.5328C20.2205 15.3923 21.2066 13.084 22.0474 9.6718C22.7523 6.81102 23.165 3.92061 23.3041 2.31468C23.3586 1.68576 23.1421 1.06911 22.71 0.622818ZM21.8579 2.1808C21.5459 5.78033 20.1204 13.3743 18.0898 15.472C15.4158 18.2344 10.0108 19.3235 7.30927 16.5327C7.2678 16.4899 7.22723 16.4463 7.18753 16.4022C9.21262 14.2326 11.7883 11.8238 14.6195 10.0132C14.9605 9.79518 15.0658 9.33294 14.8547 8.98072C14.6437 8.6286 14.1963 8.51971 13.8553 8.73782C11.0037 10.5614 8.41379 12.9537 6.35399 15.1357C4.95399 12.1583 6.05574 7.75138 8.33597 5.39577C10.3665 3.29811 17.7175 1.82544 21.2019 1.50318C21.2217 1.50135 21.2408 1.50046 21.2595 1.50046C21.4725 1.50046 21.6148 1.61263 21.6834 1.68346C21.7579 1.76052 21.8798 1.92763 21.8579 2.1808Z" fill="#FBB659"/>
</svg>
