<svg width="17" height="24" viewBox="0 0 17 24" fill="none" xmlns="http://www.w3.org/2000/svg">
<path d="M16.44 8C16.4427 6.70485 16.1411 5.42839 15.5609 4.28028C14.9807 3.13217 14.1393 2.14674 13.1091 1.40867C12.0789 0.670595 10.8907 0.201949 9.64645 0.0429949C8.40222 -0.115959 7.13925 0.0395327 5.96603 0.49611C4.79282 0.952686 3.74445 1.6967 2.911 2.66421C2.07756 3.63173 1.48396 4.79382 1.18121 6.05063C0.878458 7.30745 0.87561 8.6214 1.17291 9.87961C1.47021 11.1378 2.05876 12.3026 2.888 13.274V21.5C2.888 21.9709 3.01676 22.4323 3.25946 22.831C3.50215 23.2296 3.84892 23.5494 4.25982 23.7534C4.67071 23.9573 5.12902 24.0373 5.58197 23.984C6.03492 23.9306 6.46408 23.7462 6.82002 23.452L8.39399 22.152C8.47975 22.0812 8.58625 22.0427 8.696 22.0427C8.80576 22.0427 8.91225 22.0812 8.99802 22.152L10.572 23.452C10.9279 23.7462 11.3571 23.9306 11.81 23.984C12.263 24.0373 12.7213 23.9573 13.1322 23.7534C13.5431 23.5494 13.8899 23.2296 14.1326 22.831C14.3752 22.4323 14.504 21.9709 14.504 21.5V13.274C15.7511 11.8192 16.4397 9.94324 16.44 8ZM8.696 2C9.84472 2 10.9676 2.35189 11.9228 3.01118C12.8779 3.67047 13.6223 4.60754 14.0619 5.7039C14.5015 6.80025 14.6165 8.00665 14.3924 9.17054C14.1683 10.3344 13.6151 11.4035 12.8029 12.2426C11.9906 13.0818 10.9557 13.6532 9.82909 13.8847C8.70245 14.1162 7.53465 13.9974 6.47338 13.5433C5.4121 13.0891 4.50502 12.3201 3.86683 11.3334C3.22864 10.3467 2.888 9.18668 2.888 8C2.88954 6.40918 3.50195 4.88398 4.59082 3.75911C5.6797 2.63424 7.1561 2.00158 8.696 2ZM12.2941 21.948C12.2122 21.9899 12.1203 22.0066 12.0295 21.9959C11.9386 21.9853 11.8527 21.9478 11.782 21.888L10.208 20.588C9.77963 20.2315 9.24609 20.0371 8.696 20.0371C8.14592 20.0371 7.61238 20.2315 7.18399 20.588L5.61099 21.888C5.53996 21.9469 5.45428 21.9839 5.36381 21.9948C5.27334 22.0056 5.18174 21.9899 5.09954 21.9493C5.01734 21.9088 4.94787 21.8451 4.89913 21.7657C4.85039 21.6862 4.82435 21.5941 4.824 21.5V14.918C5.99912 15.6266 7.33535 16 8.696 16C10.0567 16 11.3929 15.6266 12.568 14.918V21.5C12.5691 21.594 12.5438 21.6864 12.4952 21.7659C12.4466 21.8454 12.3767 21.9086 12.2941 21.948Z" fill="#FBB659"/>
</svg>
