<svg width="24" height="24" viewBox="0 0 24 24" fill="none" xmlns="http://www.w3.org/2000/svg">
<g clip-path="url(#clip0_10_75)">
<path d="M8.792 12C9.94071 12 11.0636 11.6481 12.0188 10.9888C12.9739 10.3295 13.7183 9.39246 14.1579 8.2961C14.5975 7.19975 14.7125 5.99335 14.4884 4.82946C14.2643 3.66558 13.7111 2.59648 12.8989 1.75736C12.0866 0.918247 11.0517 0.346802 9.92509 0.115291C8.79844 -0.11622 7.63065 0.00259972 6.56938 0.456726C5.5081 0.910851 4.60102 1.67989 3.96283 2.66658C3.32463 3.65328 2.984 4.81331 2.984 6C2.98554 7.59081 3.59795 9.11602 4.68682 10.2409C5.7757 11.3658 7.2521 11.9984 8.792 12ZM8.792 2C9.55781 2 10.3064 2.2346 10.9432 2.67412C11.5799 3.11365 12.0762 3.73836 12.3693 4.46927C12.6623 5.20017 12.739 6.00444 12.5896 6.78036C12.4402 7.55629 12.0714 8.26902 11.5299 8.82843C10.9884 9.38784 10.2985 9.7688 9.54739 9.92314C8.7963 10.0775 8.01777 9.99827 7.31025 9.69552C6.60274 9.39277 5.99801 8.88008 5.57255 8.22228C5.14709 7.56449 4.92 6.79113 4.92 6C4.92 4.93914 5.32794 3.92172 6.05408 3.17158C6.78022 2.42143 7.76508 2 8.792 2Z" fill="#FBB659"/>
<path d="M8.792 14C6.4823 14.0029 4.26801 14.9521 2.6348 16.6393C1.00159 18.3265 0.0828196 20.6139 0.0800018 23C0.0800018 23.2652 0.181987 23.5196 0.363522 23.7071C0.545058 23.8946 0.791272 24 1.048 24C1.30473 24 1.55095 23.8946 1.73248 23.7071C1.91402 23.5196 2.016 23.2652 2.016 23C2.016 21.1435 2.7299 19.363 4.00065 18.0503C5.27139 16.7375 6.99489 16 8.792 16C10.5891 16 12.3126 16.7375 13.5834 18.0503C14.8541 19.363 15.568 21.1435 15.568 23C15.568 23.2652 15.67 23.5196 15.8515 23.7071C16.0331 23.8946 16.2793 24 16.536 24C16.7927 24 17.0389 23.8946 17.2205 23.7071C17.402 23.5196 17.504 23.2652 17.504 23C17.5012 20.6139 16.5824 18.3265 14.9492 16.6393C13.316 14.9521 11.1017 14.0029 8.792 14Z" fill="#FBB659"/>
<path d="M21.376 7.875C20.8373 7.90272 20.3311 8.14977 19.9683 8.56207C19.6055 8.97437 19.4155 9.51836 19.44 10.075C19.4645 9.51836 19.2745 8.97437 18.9117 8.56207C18.5489 8.14977 18.0427 7.90272 17.504 7.875C16.9653 7.90272 16.4591 8.14977 16.0963 8.56207C15.7335 8.97437 15.5435 9.51836 15.568 10.075C15.568 11.805 17.7518 13.832 18.8398 14.734C19.0102 14.8749 19.2218 14.9516 19.44 14.9516C19.6582 14.9516 19.8699 14.8749 20.0402 14.734C21.1282 13.834 23.312 11.805 23.312 10.075C23.3365 9.51836 23.1465 8.97437 22.7837 8.56207C22.4209 8.14977 21.9147 7.90272 21.376 7.875Z" fill="#FBB659"/>
</g>
<defs>
<clipPath id="clip0_10_75">
<rect width="23.232" height="24" fill="white" transform="translate(0.0800018)"/>
</clipPath>
</defs>
</svg>
