<svg width="24" height="24" viewBox="0 0 24 24" fill="none" xmlns="http://www.w3.org/2000/svg">
<path d="M13.6319 18C13.3022 18 12.9749 18.0578 12.6639 18.171V18C12.6639 17.7348 12.7659 17.4804 12.9474 17.2929C13.129 17.1053 13.3752 17 13.6319 17C13.7694 16.9991 13.9055 17.0289 14.0308 17.0874C14.1561 17.1459 14.2677 17.2317 14.3579 17.339C14.4409 17.4411 14.5428 17.5251 14.6577 17.5859C14.7725 17.6467 14.898 17.6832 15.0267 17.6932C15.1555 17.7032 15.2848 17.6865 15.4072 17.6441C15.5296 17.6017 15.6425 17.5344 15.7393 17.4463C15.8362 17.3581 15.915 17.2508 15.9711 17.1307C16.0272 17.0106 16.0595 16.8802 16.066 16.747C16.0726 16.6138 16.0533 16.4806 16.0094 16.3553C15.9654 16.2299 15.8976 16.1149 15.8099 16.017C15.4198 15.5601 14.9043 15.2366 14.3319 15.0898C13.7596 14.9429 13.1575 14.9795 12.6058 15.1948C12.0541 15.4101 11.5789 15.7938 11.2434 16.2949C10.908 16.796 10.7282 17.3907 10.7279 18V21C10.7281 21.6513 10.9335 22.2849 11.3131 22.805C11.6926 23.3251 12.2257 23.7034 12.8318 23.8829C13.4379 24.0623 14.084 24.0332 14.6726 23.7997C15.2612 23.5663 15.7603 23.1413 16.0945 22.589C16.364 22.1406 16.5165 21.6278 16.537 21.1004C16.5576 20.5731 16.4454 20.0492 16.2116 19.58C15.9664 19.0948 15.5951 18.6899 15.1394 18.4108C14.6837 18.1316 14.1616 17.9894 13.6319 18ZM14.4537 21.529C14.3646 21.6767 14.2397 21.7979 14.0913 21.8804C13.9429 21.963 13.7763 22.0041 13.6078 21.9997C13.4393 21.9953 13.2749 21.9455 13.1308 21.8553C12.9866 21.7651 12.8678 21.6376 12.786 21.4854C12.7042 21.3332 12.6622 21.1616 12.6643 20.9875C12.6664 20.8135 12.7125 20.643 12.7979 20.4929C12.8834 20.3429 13.0053 20.2185 13.1515 20.132C13.2978 20.0456 13.4634 20.0001 13.6319 20C13.7984 19.9906 13.9642 20.0279 14.1118 20.108C14.2594 20.1881 14.3832 20.308 14.4702 20.455C14.5595 20.6196 14.6051 20.8056 14.6022 20.9943C14.5993 21.1829 14.5481 21.3674 14.4537 21.529ZM20.4079 15C19.6377 15 18.8991 15.3161 18.3545 15.8787C17.8099 16.4413 17.5039 17.2043 17.5039 18V21C17.5039 21.7956 17.8099 22.5587 18.3545 23.1213C18.8991 23.6839 19.6377 24 20.4079 24C21.1781 24 21.9167 23.6839 22.4613 23.1213C23.0059 22.5587 23.3119 21.7956 23.3119 21V18C23.3119 17.2043 23.0059 16.4413 22.4613 15.8787C21.9167 15.3161 21.1781 15 20.4079 15ZM21.3759 21C21.3759 21.2652 21.2739 21.5196 21.0924 21.7071C20.9108 21.8946 20.6646 22 20.4079 22C20.1512 22 19.905 21.8946 19.7234 21.7071C19.5419 21.5196 19.4399 21.2652 19.4399 21V18C19.4399 17.7348 19.5419 17.4804 19.7234 17.2929C19.905 17.1053 20.1512 17 20.4079 17C20.6646 17 20.9108 17.1053 21.0924 17.2929C21.2739 17.4804 21.3759 17.7348 21.3759 18V21ZM11.6959 13H7.8239C7.56717 13 7.32095 12.8946 7.13942 12.7071C6.95788 12.5196 6.8559 12.2652 6.8559 12C6.8559 11.7348 6.95788 11.4804 7.13942 11.2929C7.32095 11.1053 7.56717 11 7.8239 11H10.7279V6.99999C10.7279 6.73477 10.8299 6.48042 11.0114 6.29288C11.193 6.10534 11.4392 5.99999 11.6959 5.99999C11.9526 5.99999 12.1988 6.10534 12.3804 6.29288C12.5619 6.48042 12.6639 6.73477 12.6639 6.99999V12C12.6639 12.2652 12.5619 12.5196 12.3804 12.7071C12.1988 12.8946 11.9526 13 11.6959 13ZM23.3119 2.99999V5.99999C23.3119 6.79564 23.0059 7.5587 22.4613 8.12131C21.9167 8.68392 21.1781 8.99999 20.4079 8.99999H17.5039C17.2472 8.99999 17.001 8.89463 16.8194 8.70709C16.6379 8.51956 16.5359 8.2652 16.5359 7.99999C16.5359 7.73477 16.6379 7.48042 16.8194 7.29288C17.001 7.10534 17.2472 6.99999 17.5039 6.99999H20.0565C19.282 5.61912 18.1985 4.45003 16.8967 3.59058C15.595 2.73114 14.1129 2.20635 12.5745 2.06016C11.0361 1.91396 9.48623 2.15061 8.05456 2.75029C6.62289 3.34998 5.35111 4.29524 4.3457 5.50696C3.34029 6.71868 2.63049 8.16158 2.27574 9.71488C1.92098 11.2682 1.93159 12.8867 2.30667 14.4349C2.68175 15.9831 3.4104 17.4159 4.4316 18.6135C5.4528 19.811 6.73685 20.7384 8.17625 21.318C8.41552 21.4145 8.60787 21.6053 8.71098 21.8484C8.8141 22.0914 8.81952 22.3668 8.72608 22.614C8.63263 22.8612 8.44795 23.0599 8.21268 23.1664C7.97741 23.2729 7.71082 23.2785 7.47155 23.182C5.77044 22.4965 4.24971 21.4064 3.03276 20.0001C1.81581 18.5938 0.936916 16.911 0.467388 15.0881C-0.00213954 13.2652 -0.0490744 11.3537 0.330392 9.50855C0.709859 7.66343 1.50504 5.93671 2.65141 4.46849C3.79778 3.00028 5.26305 1.83192 6.92834 1.05823C8.59362 0.28454 10.412 -0.0726961 12.236 0.015508C14.0599 0.103712 15.838 0.634872 17.4261 1.56589C19.0141 2.49691 20.3673 3.80156 21.3759 5.37399V2.99999C21.3759 2.73477 21.4779 2.48042 21.6594 2.29288C21.841 2.10534 22.0872 1.99999 22.3439 1.99999C22.6006 1.99999 22.8468 2.10534 23.0284 2.29288C23.2099 2.48042 23.3119 2.73477 23.3119 2.99999Z" fill="#FBB659"/>
</svg>
